<mxfile host="65bd71144e">
    <diagram id="R7KU6FjrDgK1s1mhfsLz" name="第 1 页">
        <mxGraphModel dx="1044" dy="570" grid="1" gridSize="10" guides="1" tooltips="1" connect="1" arrows="1" fold="1" page="1" pageScale="1" pageWidth="3300" pageHeight="4681" math="0" shadow="0">
            <root>
                <mxCell id="0"/>
                <mxCell id="1" parent="0"/>
                <mxCell id="2" value="" style="strokeWidth=2;html=1;shape=mxgraph.flowchart.multi-document;whiteSpace=wrap;sketch=1;hachureGap=4;jiggle=2;curveFitting=1;fontFamily=Architects Daughter;fontSource=https%3A%2F%2Ffonts.googleapis.com%2Fcss%3Ffamily%3DArchitects%2BDaughter;fontSize=20;" vertex="1" parent="1">
                    <mxGeometry x="110" y="270" width="88" height="60" as="geometry"/>
                </mxCell>
                <mxCell id="5" value="" style="edgeStyle=none;sketch=1;hachureGap=4;jiggle=2;curveFitting=1;html=1;fontFamily=Architects Daughter;fontSource=https%3A%2F%2Ffonts.googleapis.com%2Fcss%3Ffamily%3DArchitects%2BDaughter;fontSize=16;" edge="1" parent="1" source="3" target="4">
                    <mxGeometry relative="1" as="geometry"/>
                </mxCell>
                <mxCell id="7" value="" style="edgeStyle=none;sketch=1;hachureGap=4;jiggle=2;curveFitting=1;html=1;fontFamily=Architects Daughter;fontSource=https%3A%2F%2Ffonts.googleapis.com%2Fcss%3Ffamily%3DArchitects%2BDaughter;fontSize=16;" edge="1" parent="1" source="3" target="6">
                    <mxGeometry relative="1" as="geometry"/>
                </mxCell>
                <mxCell id="11" value="" style="edgeStyle=none;sketch=1;hachureGap=4;jiggle=2;curveFitting=1;html=1;fontFamily=Architects Daughter;fontSource=https%3A%2F%2Ffonts.googleapis.com%2Fcss%3Ffamily%3DArchitects%2BDaughter;fontSize=16;" edge="1" parent="1" source="3" target="10">
                    <mxGeometry relative="1" as="geometry"/>
                </mxCell>
                <mxCell id="12" value="" style="edgeStyle=none;sketch=1;hachureGap=4;jiggle=2;curveFitting=1;html=1;fontFamily=Architects Daughter;fontSource=https%3A%2F%2Ffonts.googleapis.com%2Fcss%3Ffamily%3DArchitects%2BDaughter;fontSize=16;" edge="1" parent="1" source="3" target="10">
                    <mxGeometry relative="1" as="geometry"/>
                </mxCell>
                <mxCell id="14" value="" style="edgeStyle=none;sketch=1;hachureGap=4;jiggle=2;curveFitting=1;html=1;fontFamily=Architects Daughter;fontSource=https%3A%2F%2Ffonts.googleapis.com%2Fcss%3Ffamily%3DArchitects%2BDaughter;fontSize=16;" edge="1" parent="1" source="3" target="13">
                    <mxGeometry relative="1" as="geometry"/>
                </mxCell>
                <mxCell id="3" value="core" style="strokeWidth=2;html=1;shape=mxgraph.flowchart.multi-document;whiteSpace=wrap;sketch=1;hachureGap=4;jiggle=2;curveFitting=1;fontFamily=Architects Daughter;fontSource=https%3A%2F%2Ffonts.googleapis.com%2Fcss%3Ffamily%3DArchitects%2BDaughter;fontSize=20;" vertex="1" parent="1">
                    <mxGeometry x="110" y="270" width="88" height="60" as="geometry"/>
                </mxCell>
                <mxCell id="4" value="MySql" style="ellipse;whiteSpace=wrap;html=1;fontSize=20;fontFamily=Architects Daughter;strokeWidth=2;sketch=1;hachureGap=4;jiggle=2;curveFitting=1;fontSource=https%3A%2F%2Ffonts.googleapis.com%2Fcss%3Ffamily%3DArchitects%2BDaughter;" vertex="1" parent="1">
                    <mxGeometry x="114" y="400" width="80" height="80" as="geometry"/>
                </mxCell>
                <mxCell id="6" value="PySide" style="ellipse;whiteSpace=wrap;html=1;fontSize=20;fontFamily=Architects Daughter;strokeWidth=2;sketch=1;hachureGap=4;jiggle=2;curveFitting=1;fontSource=https%3A%2F%2Ffonts.googleapis.com%2Fcss%3Ffamily%3DArchitects%2BDaughter;" vertex="1" parent="1">
                    <mxGeometry x="114" y="120" width="80" height="80" as="geometry"/>
                </mxCell>
                <mxCell id="10" value="ui" style="whiteSpace=wrap;html=1;fontSize=20;fontFamily=Architects Daughter;strokeWidth=2;sketch=1;hachureGap=4;jiggle=2;curveFitting=1;fontSource=https%3A%2F%2Ffonts.googleapis.com%2Fcss%3Ffamily%3DArchitects%2BDaughter;" vertex="1" parent="1">
                    <mxGeometry x="250" y="220" width="120" height="60" as="geometry"/>
                </mxCell>
                <mxCell id="13" value="data" style="whiteSpace=wrap;html=1;fontSize=20;fontFamily=Architects Daughter;strokeWidth=2;sketch=1;hachureGap=4;jiggle=2;curveFitting=1;fontSource=https%3A%2F%2Ffonts.googleapis.com%2Fcss%3Ffamily%3DArchitects%2BDaughter;" vertex="1" parent="1">
                    <mxGeometry x="250" y="320" width="120" height="60" as="geometry"/>
                </mxCell>
                <mxCell id="15" value=":Dpgnz" style="shape=umlLifeline;perimeter=lifelinePerimeter;whiteSpace=wrap;html=1;container=1;collapsible=0;recursiveResize=0;outlineConnect=0;sketch=1;hachureGap=4;jiggle=2;curveFitting=1;fontFamily=Architects Daughter;fontSource=https%3A%2F%2Ffonts.googleapis.com%2Fcss%3Ffamily%3DArchitects%2BDaughter;fontSize=20;" vertex="1" parent="1">
                    <mxGeometry x="830" y="30" width="100" height="790" as="geometry"/>
                </mxCell>
                <mxCell id="20" value="Database" style="verticalAlign=top;align=left;spacingTop=8;spacingLeft=2;spacingRight=12;shape=cube;size=10;direction=south;fontStyle=4;html=1;sketch=1;hachureGap=4;jiggle=2;curveFitting=1;fontFamily=Architects Daughter;fontSource=https%3A%2F%2Ffonts.googleapis.com%2Fcss%3Ffamily%3DArchitects%2BDaughter;fontSize=20;" vertex="1" parent="1">
                    <mxGeometry x="1030" y="70" width="180" height="120" as="geometry"/>
                </mxCell>
                <mxCell id="21" value="return" style="html=1;verticalAlign=bottom;endArrow=open;dashed=1;endSize=8;sketch=1;hachureGap=4;jiggle=2;curveFitting=1;fontFamily=Architects Daughter;fontSource=https%3A%2F%2Ffonts.googleapis.com%2Fcss%3Ffamily%3DArchitects%2BDaughter;fontSize=16;shape=arrow;" edge="1" parent="1">
                    <mxGeometry relative="1" as="geometry">
                        <mxPoint x="1010" y="171" as="sourcePoint"/>
                        <mxPoint x="900" y="170" as="targetPoint"/>
                    </mxGeometry>
                </mxCell>
                <mxCell id="22" value="Use" style="endArrow=open;endSize=12;dashed=1;html=1;sketch=1;hachureGap=4;jiggle=2;curveFitting=1;fontFamily=Architects Daughter;fontSource=https%3A%2F%2Ffonts.googleapis.com%2Fcss%3Ffamily%3DArchitects%2BDaughter;fontSize=16;shape=arrow;" edge="1" parent="1">
                    <mxGeometry width="160" relative="1" as="geometry">
                        <mxPoint x="890" y="120.5" as="sourcePoint"/>
                        <mxPoint x="1020" y="120" as="targetPoint"/>
                    </mxGeometry>
                </mxCell>
            </root>
        </mxGraphModel>
    </diagram>
</mxfile>